<?xml version="1.0"?>
<svg id="Camada_2" data-name="Camada 2" xmlns="http://www.w3.org/2000/svg" viewBox="0 0 299.42 205.25">
  <g id="Camada_1-2" data-name="Camada 1">
    <g>
      <path fill="#fff" d="M211.01,13.18h-25.94v25.92c0,12.78,10.37,23.15,23.15,23.15h25.93v-25.93c0-12.77-10.37-23.14-23.14-23.14ZM229.11,59.79l-14.62-14.61h-23.05v-2.64h20.41l-23.6-23.61,1.86-1.87,13.46,13.46v-13.61h2.64v16.25l15.07,15.08v-22.19h2.65v24.8h-.04l7.09,7.08-1.87,1.86Z"></path>
      <g>
        <path fill="#fff" d="M58.72,152.59c-1.28,8.87-6.13,10.9-11.31,10.9h-1.28c-.82,0-1.42-.73-1.26-1.54h.01l4.22-20.99h.81c7.54,0,9.94,3.84,8.81,11.63Z"></path>
        <path fill="#fff" d="M63.54,120.14c-1.05,6.15-3.99,8.2-10.35,8.2h-.01c-.81,0-1.42-.74-1.26-1.53l3.14-15.75c.12-.6.64-1.03,1.26-1.03h.37c6.44,0,7.89,3.84,6.85,10.11Z"></path>
        <path fill="#fff" d="M105.32,144.22h8.18c.5-11.19,1.23-23.8,1.75-31.52-2.17,7.54-6.01,19.48-9.93,31.52ZM105.32,144.22h8.18c.5-11.19,1.23-23.8,1.75-31.52-2.17,7.54-6.01,19.48-9.93,31.52ZM105.32,144.22h8.18c.5-11.19,1.23-23.8,1.75-31.52-2.17,7.54-6.01,19.48-9.93,31.52ZM156.81,163.2h.51-.51ZM166.8,110.32c.38,0,.74.01,1.09.02v-.02h-1.09ZM167.89,110.34l-10.57,52.85c7.77-.1,12.19-2.9,16.41-25.18,4.21-22.31,2.41-27.3-5.84-27.67ZM167.89,110.34l-10.57,52.85c7.77-.1,12.19-2.9,16.41-25.18,4.21-22.31,2.41-27.3-5.84-27.67ZM166.8,110.32c.38,0,.74.01,1.09.02v-.02h-1.09ZM157.32,163.2h-.51.51ZM105.32,144.22h8.18c.5-11.19,1.23-23.8,1.75-31.52-2.17,7.54-6.01,19.48-9.93,31.52ZM267.64,66.74H53.36C23.89,66.74,0,90.63,0,120.09v85.16h246.07c29.47,0,53.35-23.89,53.35-53.35V49.96c-6.93,10.14-18.58,16.78-31.78,16.78ZM48.64,176.53h-24.23c-.79,0-1.4-.73-1.26-1.52l14.04-77.1h0c.11-.62.65-1.06,1.26-1.06h21.92c25.87,0,24.23,10.51,21.73,23.6-1.71,9-9.2,13.23-14.6,14.97,9.85-.47,11.69,9.89,8.36,21.81-3.89,13.9-12.03,19.3-27.22,19.3ZM130.24,175.27c-.03.69-.6,1.24-1.29,1.24h-16.04c-.73,0-1.3-.6-1.29-1.33l.54-15.33c.01-.72-.56-1.33-1.3-1.33h-9.7c-.54,0-1.02.36-1.22.87l-5.67,16.27c-.17.5-.67.85-1.21.85h-15.33c-.91,0-1.53-.89-1.2-1.74,4.16-10.89,26.56-69.47,29.48-77.1.19-.5.66-.82,1.19-.82h24.53c.72-.01,1.31.59,1.28,1.32l-2.77,77.1ZM157.92,176.52h-21.45c-.82,0-1.43-.74-1.27-1.54l15.55-77.1c.12-.6.65-1.03,1.26-1.03h17.04c21.03,0,29.16,1.56,21.96,41.95-6.06,33.98-13.46,37.72-33.09,37.72ZM208.54,176.52h-16.18c-.81,0-1.41-.73-1.26-1.53l14.63-77.1c.11-.6.65-1.04,1.26-1.04h16.18c.81,0,1.41.73,1.26,1.52l-14.63,77.1c-.11.61-.65,1.05-1.26,1.05ZM267.6,175.27c-.03.69-.59,1.24-1.29,1.24h-16.98c-.73,0-1.32-.6-1.29-1.33l.53-15.33c.03-.72-.56-1.33-1.28-1.33h-8.77c-.54,0-1.03.36-1.21.87l-5.67,16.27c-.19.5-.67.85-1.22.85h-14.39c-.9,0-1.52-.89-1.2-1.74,4.17-10.89,26.57-69.47,29.48-77.1.2-.5.67-.82,1.2-.82h23.56c.74-.01,1.32.59,1.29,1.32l-2.76,77.1ZM249.93,144.22c.49-11.17,1.23-23.76,1.74-31.48-2.18,7.54-6,19.45-9.91,31.48h8.17ZM167.89,110.34l-10.57,52.85c7.77-.1,12.19-2.9,16.41-25.18,4.21-22.31,2.41-27.3-5.84-27.67ZM166.8,110.32c.38,0,.74.01,1.09.02v-.02h-1.09ZM157.32,163.2h-.51.51ZM113.5,144.22c.5-11.19,1.23-23.8,1.75-31.52-2.17,7.54-6.01,19.48-9.93,31.52h8.18ZM105.32,144.22h8.18c.5-11.19,1.23-23.8,1.75-31.52-2.17,7.54-6.01,19.48-9.93,31.52ZM156.81,163.2h.51-.51ZM166.8,110.32c.38,0,.74.01,1.09.02v-.02h-1.09ZM167.89,110.34l-10.57,52.85c7.77-.1,12.19-2.9,16.41-25.18,4.21-22.31,2.41-27.3-5.84-27.67ZM167.89,110.34l-10.57,52.85c7.77-.1,12.19-2.9,16.41-25.18,4.21-22.31,2.41-27.3-5.84-27.67ZM166.8,110.32c.38,0,.74.01,1.09.02v-.02h-1.09ZM156.81,163.2h.51-.51ZM105.32,144.22h8.18c.5-11.19,1.23-23.8,1.75-31.52-2.17,7.54-6.01,19.48-9.93,31.52Z"></path>
      </g>
      <path fill="#fff" d="M270.09,0c-17.12,0-31.01,13.89-31.01,31.01v31.25h29.3c17.12,0,31.01-13.89,31.01-31.01V0h-29.3ZM293.9,24.72v2.64h-18.63l-19.7,19.7h27.62v2.64h-30.26l-9.17,9.18-1.87-1.86,18.1-18.1h-.12V13.18h2.64v23.22l31.23-31.23,1.86,1.86-17.69,17.69h15.99Z"></path>
    </g>
  </g>
</svg>