<?xml version="1.0"?>

<svg version="1.1" id="Camada_1" xmlns="http://www.w3.org/2000/svg" xmlns:xlink="http://www.w3.org/1999/xlink" x="0px" y="0px" viewBox="0 0 1000 287" style="enable-background:new 0 0 1000 287;" xml:space="preserve">

<rect x="862.97" y="148.3" transform="matrix(0.7071 -0.7071 0.7071 0.7071 135.5712 683.3729)" class="st0" width="59.48" height="59.48"></rect>
<rect x="862.36" y="147.71" transform="matrix(-0.7074 -0.7069 0.7069 -0.7074 1398.2972 934.9698)" class="st0" width="60.67" height="60.65"></rect>
<g>
&#x9;<path class="st2" d="M507.01,88.11c-18.46,0-34.53,6.84-45.48,19.49V17.67l-54.71,0.34v158.31c0,57.44,38.64,91.64,90.95,91.64&#xA;&#x9;&#x9;c54.37,0,92.32-36.93,92.32-91.98C590.1,116.49,545.65,88.11,507.01,88.11z M498.46,217.01c-22.23,0-37.27-15.73-37.27-38.64&#xA;&#x9;&#x9;c0-23.25,15.04-38.64,37.27-38.64c21.54,0,36.59,15.39,36.59,38.64C535.05,201.29,520,217.01,498.46,217.01z"></path>
&#x9;<path class="st2" d="M129.18,182.82c0,24.28-11.28,35.22-29.06,35.22c-17.44,0-29.06-10.94-29.06-35.22V92.55H16v88.56&#xA;&#x9;&#x9;c0,58.13,33.85,86.85,84.11,86.85c50.95,0,84.46-29.06,84.46-86.85V92.55h-55.39V182.82z"></path>
&#x9;<path class="st2" d="M295.7,88.11c-50.95,0-84.46,29.06-84.46,86.85v88.56h55.39v-90.27c0-24.28,11.28-35.22,29.06-35.22&#xA;&#x9;&#x9;c17.44,0,29.06,10.94,29.06,35.22v90.27h55.05v-88.56C379.81,116.83,345.96,88.11,295.7,88.11z"></path>
&#x9;<path class="st2" d="M702.25,88.11c-54.02,0-91.98,37.95-91.98,90.27c0,51.63,37.95,89.59,91.98,89.59&#xA;&#x9;&#x9;c54.02,0,94.03-37.95,92.32-89.59C792.86,126.06,756.28,88.11,702.25,88.11z M702.25,217.01c-21.88,0-36.93-16.07-36.93-38.64&#xA;&#x9;&#x9;c0-22.91,15.04-38.64,36.93-38.64c22.22,0,36.93,15.73,36.93,38.64C739.18,200.94,724.48,217.01,702.25,217.01z"></path>
&#x9;
&#x9;&#x9;<rect x="908.61" y="188.87" transform="matrix(0.7071 -0.7071 0.7071 0.7071 116.67 729.0305)" class="st2" width="59.48" height="69.63"></rect>
&#x9;
&#x9;&#x9;<rect x="812.24" y="193.94" transform="matrix(0.7071 -0.7071 0.7071 0.7071 89.9245 664.4651)" class="st2" width="69.63" height="59.48"></rect>
&#x9;
&#x9;&#x9;<rect x="817.32" y="97.57" transform="matrix(0.7071 -0.7071 0.7071 0.7071 154.4926 637.7449)" class="st2" width="59.48" height="69.63"></rect>
&#x9;
&#x9;&#x9;<rect x="903.54" y="102.65" transform="matrix(0.7071 -0.7071 0.7071 0.7071 181.2177 702.2806)" class="st2" width="69.63" height="59.48"></rect>
</g>
<rect x="862.97" y="148.3" transform="matrix(0.7071 -0.7071 0.7071 0.7071 135.5781 683.3831)" class="st1" width="59.48" height="59.48"></rect>
</svg>